<svg xmlns="http://www.w3.org/2000/svg" xmlns:xlink="http://www.w3.org/1999/xlink" width="4000" height="2000" viewBox="0 0 4000 2000">
  <defs>
    <clipPath id="clip-Niklas_Wallpaper">
      <rect width="4000" height="2000"/>
    </clipPath>
  </defs>
  <g id="Niklas_Wallpaper" data-name="Niklas Wallpaper" clip-path="url(#clip-Niklas_Wallpaper)">
    <rect width="4000" height="2000" fill="#282828"/>
    <g id="h" transform="translate(2526.972 809.599)">
      <g id="Polygon_5" data-name="Polygon 5" transform="translate(-34.972 -0.138)" fill="none">
        <path d="M221.532,0a32,32,0,0,1,27.708,15.991L310.75,122.453a32,32,0,0,1,0,32.018L249.239,260.932a32,32,0,0,1-27.708,15.991H98.468a32,32,0,0,1-27.708-15.991L9.25,154.47a32,32,0,0,1,0-32.018L70.761,15.991A32,32,0,0,1,98.468,0Z" stroke="none"/>
        <path d="M 98.4683837890625 15.99996948242188 C 92.77250671386719 15.99996948242188 87.46405029296875 19.06369018554688 84.61456298828125 23.99552917480469 L 23.1033935546875 130.45703125 C 20.250732421875 135.3943634033203 20.25076293945312 141.5286407470703 23.1033935546875 146.4659729003906 L 84.614501953125 252.9274749755859 C 87.46400451660156 257.8593139648438 92.77250671386719 260.9230346679688 98.46833801269531 260.9230346679688 L 221.5315551757812 260.9230346679688 C 227.2274475097656 260.9230346679688 232.5359497070312 257.8593139648438 235.3854370117188 252.9275360107422 L 296.8966064453125 146.4660339355469 C 299.749267578125 141.5286407470703 299.749267578125 135.3944244384766 296.8966064453125 130.4570922851562 L 235.3854370117188 23.99552917480469 C 232.5359497070312 19.06369018554688 227.2274475097656 15.99996948242188 221.5315551757812 15.99996948242188 L 98.4683837890625 15.99996948242188 M 98.4683837890625 -3.0517578125e-05 L 221.5315551757812 -3.0517578125e-05 C 232.9603881835938 -3.0517578125e-05 243.5216674804688 6.095245361328125 249.2392883300781 15.9910888671875 L 310.7504577636719 122.45263671875 C 316.4735107421875 132.3579711914062 316.4735107421875 144.5650939941406 310.7504577636719 154.4704284667969 L 249.2392883300781 260.9319763183594 C 243.5216674804688 270.8277587890625 232.9603881835938 276.9230346679688 221.5315551757812 276.9230346679688 L 98.46833801269531 276.9230346679688 C 87.03950500488281 276.9230346679688 76.478271484375 270.8277587890625 70.76066589355469 260.9319152832031 L 9.249542236328125 154.4704284667969 C 3.5264892578125 144.5650329589844 3.5264892578125 132.3579711914062 9.249542236328125 122.45263671875 L 70.76072692871094 15.9910888671875 C 76.478271484375 6.095245361328125 87.03955078125 -3.0517578125e-05 98.4683837890625 -3.0517578125e-05 Z" stroke="none" fill="#cc241d"/>
      </g>
      <text id="h-2" data-name="h" transform="translate(125.028 187.862)" fill="#fff" font-size="150" font-family="Consolas"><tspan x="-41.235" y="0">h</tspan></text>
      <line id="Line_1" data-name="Line 1" x1="2502" transform="translate(-2526.972 137.901)" fill="none" stroke="#cc241d" stroke-width="8"/>
    </g>
    <g id="j" transform="translate(2743.473 947.1)">
      <g id="Polygon_3" data-name="Polygon 3" transform="translate(-0.473 0.362)" fill="none">
        <path d="M221.532,0a32,32,0,0,1,27.708,15.991L310.75,122.453a32,32,0,0,1,0,32.018L249.239,260.932a32,32,0,0,1-27.708,15.991H98.468a32,32,0,0,1-27.708-15.991L9.25,154.47a32,32,0,0,1,0-32.018L70.761,15.991A32,32,0,0,1,98.468,0Z" stroke="none"/>
        <path d="M 98.46839904785156 16 C 92.77252197265625 16 87.46401977539062 19.063720703125 84.61451721191406 23.99555969238281 L 23.1033935546875 130.4571685791016 C 20.250732421875 135.3944549560547 20.250732421875 141.5286712646484 23.1033935546875 146.4660034179688 L 84.61451721191406 252.9275054931641 C 87.46401977539062 257.8594055175781 92.77252197265625 260.9231262207031 98.46835327148438 260.9231262207031 L 221.5316162109375 260.9231262207031 C 227.2275085449219 260.9231262207031 232.5359497070312 257.8594055175781 235.3854675292969 252.9275665283203 L 296.8965759277344 146.4659576416016 C 299.7492370605469 141.5286712646484 299.7492370605469 135.3944549560547 296.8965759277344 130.4571228027344 L 235.3854064941406 23.99551391601562 C 232.5359497070312 19.063720703125 227.2275085449219 16 221.5316162109375 16 L 98.46839904785156 16 M 98.46839904785156 0 L 221.5316162109375 0 C 232.96044921875 0 243.521728515625 6.09527587890625 249.2392883300781 15.99111938476562 L 310.7503967285156 122.4526672363281 C 316.4735107421875 132.3580017089844 316.4735107421875 144.5651245117188 310.7503967285156 154.470458984375 L 249.2392883300781 260.9320068359375 C 243.521728515625 270.8278503417969 232.96044921875 276.9231262207031 221.5316162109375 276.9231262207031 L 98.46835327148438 276.9231262207031 C 87.03952026367188 276.9231262207031 76.47828674316406 270.8277893066406 70.76068115234375 260.9320068359375 L 9.24957275390625 154.470458984375 C 3.526458740234375 144.5651245117188 3.526458740234375 132.3580017089844 9.24957275390625 122.4526672363281 L 70.76068115234375 15.99111938476562 C 76.47828674316406 6.09527587890625 87.03956604003906 0 98.46839904785156 0 Z" stroke="none" fill="#b8bb26"/>
      </g>
      <text id="j-2" data-name="j" transform="translate(159.527 188.362)" fill="#fff" font-size="150" font-family="Consolas"><tspan x="-41.235" y="0">j</tspan></text>
      <line id="Line_2" data-name="Line 2" y2="786" transform="translate(160.027 267.4)" fill="none" stroke="#b8bb26" stroke-width="8"/>
    </g>
    <g id="k" transform="translate(3029.468 809.433)">
      <g id="Polygon_2" data-name="Polygon 2" transform="translate(-35.468 0.028)" fill="none">
        <path d="M221.532,0a32,32,0,0,1,27.708,15.991L310.75,122.453a32,32,0,0,1,0,32.018L249.239,260.932a32,32,0,0,1-27.708,15.991H98.468a32,32,0,0,1-27.708-15.991L9.25,154.47a32,32,0,0,1,0-32.018L70.761,15.991A32,32,0,0,1,98.468,0Z" stroke="none"/>
        <path d="M 98.4683837890625 15.99996948242188 C 92.77250671386719 15.99996948242188 87.46405029296875 19.06369018554688 84.61456298828125 23.99552917480469 L 23.1033935546875 130.45703125 C 20.250732421875 135.3943634033203 20.25076293945312 141.5286407470703 23.1033935546875 146.4659729003906 L 84.614501953125 252.9274749755859 C 87.46400451660156 257.8593139648438 92.77250671386719 260.9230346679688 98.4683837890625 260.9230346679688 L 221.5316772460938 260.9230346679688 C 227.2275543212891 260.9230346679688 232.5360107421875 257.8593139648438 235.385498046875 252.9274749755859 L 296.8966064453125 146.4660339355469 C 299.749267578125 141.5286407470703 299.749267578125 135.3944244384766 296.8966064453125 130.4570922851562 L 235.3854370117188 23.9954833984375 C 232.5360107421875 19.06369018554688 227.2275543212891 15.99996948242188 221.5316772460938 15.99996948242188 L 98.4683837890625 15.99996948242188 M 98.4683837890625 -3.0517578125e-05 L 221.5316772460938 -3.0517578125e-05 C 232.9605102539062 -3.0517578125e-05 243.5217742919922 6.095245361328125 249.2393341064453 15.9910888671875 L 310.7504577636719 122.45263671875 C 316.4735107421875 132.3579711914062 316.4735107421875 144.5650939941406 310.7504577636719 154.4704284667969 L 249.2393341064453 260.9319152832031 C 243.5217742919922 270.8277587890625 232.9605102539062 276.9230346679688 221.5316772460938 276.9230346679688 L 98.4683837890625 276.9230346679688 C 87.03950500488281 276.9230346679688 76.478271484375 270.8277587890625 70.76066589355469 260.9319152832031 L 9.249542236328125 154.4704284667969 C 3.5264892578125 144.5650329589844 3.5264892578125 132.3579711914062 9.249542236328125 122.45263671875 L 70.76072692871094 15.9910888671875 C 76.478271484375 6.095245361328125 87.03955078125 -3.0517578125e-05 98.4683837890625 -3.0517578125e-05 Z" stroke="none" fill="#d79921"/>
      </g>
      <line id="Line_3" data-name="Line 3" y1="819" transform="translate(125.032 -809.433)" fill="none" stroke="#d79921" stroke-width="8"/>
      <text id="k-2" data-name="k" transform="translate(124.532 188.028)" fill="#fff" font-size="150" font-family="Consolas"><tspan x="-41.235" y="0">k</tspan></text>
    </g>
    <g id="l" transform="translate(3279.639 948.061)">
      <g id="Polygon_4" data-name="Polygon 4" transform="translate(-34.638 -0.138)" fill="none">
        <path d="M221.532,0a32,32,0,0,1,27.708,15.991L310.75,122.453a32,32,0,0,1,0,32.018L249.239,260.932a32,32,0,0,1-27.708,15.991H98.468a32,32,0,0,1-27.708-15.991L9.25,154.47a32,32,0,0,1,0-32.018L70.761,15.991A32,32,0,0,1,98.468,0Z" stroke="none"/>
        <path d="M 98.4683837890625 15.99996948242188 C 92.77250671386719 15.99996948242188 87.46405029296875 19.06369018554688 84.61456298828125 23.99552917480469 L 23.1033935546875 130.45703125 C 20.250732421875 135.3943634033203 20.25076293945312 141.5286407470703 23.1033935546875 146.4659729003906 L 84.614501953125 252.9274749755859 C 87.46400451660156 257.8593139648438 92.77250671386719 260.9230346679688 98.4683837890625 260.9230346679688 L 221.5316772460938 260.9230346679688 C 227.2275543212891 260.9230346679688 232.5360107421875 257.8593139648438 235.385498046875 252.9274749755859 L 296.8966064453125 146.4660339355469 C 299.749267578125 141.5286407470703 299.749267578125 135.3944244384766 296.8966064453125 130.4570922851562 L 235.3854370117188 23.9954833984375 C 232.5360107421875 19.06369018554688 227.2275543212891 15.99996948242188 221.5316772460938 15.99996948242188 L 98.4683837890625 15.99996948242188 M 98.4683837890625 -3.0517578125e-05 L 221.5316772460938 -3.0517578125e-05 C 232.9605102539062 -3.0517578125e-05 243.5217742919922 6.095245361328125 249.2393341064453 15.9910888671875 L 310.7504577636719 122.45263671875 C 316.4735107421875 132.3579711914062 316.4735107421875 144.5650939941406 310.7504577636719 154.4704284667969 L 249.2393341064453 260.9319152832031 C 243.5217742919922 270.8277587890625 232.9605102539062 276.9230346679688 221.5316772460938 276.9230346679688 L 98.4683837890625 276.9230346679688 C 87.03950500488281 276.9230346679688 76.478271484375 270.8277587890625 70.76066589355469 260.9319152832031 L 9.249542236328125 154.4704284667969 C 3.5264892578125 144.5650329589844 3.5264892578125 132.3579711914062 9.249542236328125 122.45263671875 L 70.76072692871094 15.9910888671875 C 76.478271484375 6.095245361328125 87.03955078125 -3.0517578125e-05 98.4683837890625 -3.0517578125e-05 Z" stroke="none" fill="#458588"/>
      </g>
      <line id="Line_4" data-name="Line 4" x2="451" transform="translate(269.861 137.439)" fill="none" stroke="#458588" stroke-width="8"/>
      <text id="l-2" data-name="l" transform="translate(125.361 187.863)" fill="#fff" font-size="150" font-family="Consolas"><tspan x="-41.235" y="0">l</tspan></text>
    </g>
  </g>
</svg>
